<?xml version="1.0" encoding="utf-8"?>
<!-- Generator: Adobe Illustrator 24.1.1, SVG Export Plug-In . SVG Version: 6.00 Build 0)  -->
<svg version="1.1" id="Layer_1" xmlns="http://www.w3.org/2000/svg" xmlns:xlink="http://www.w3.org/1999/xlink" x="0px" y="0px"
	 viewBox="0 0 512 512" style="enable-background:new 0 0 512 512;" xml:space="preserve">
<g>
	<path d="M512,358.4v102.4c0,28.3-22.9,51.2-51.2,51.2H358.4v-51.2c0-28.3-22.9-51.2-51.2-51.2c-28.3,0-51.2,22.9-51.2,51.2V512
		H153.6c-28.3,0-51.2-22.9-51.2-51.2V358.4H51.2C22.9,358.4,0,335.5,0,307.2C0,278.9,22.9,256,51.2,256h51.2V153.6
		c0-28.2,23-51.2,51.2-51.2H256V51.2C256,22.9,278.9,0,307.2,0c28.3,0,51.2,22.9,51.2,51.2v51.2h102.4c28.3,0,51.2,22.9,51.2,51.2
		V256h-51.2c-28.3,0-51.2,22.9-51.2,51.2c0,28.3,22.9,51.2,51.2,51.2H512z"/>
</g>
</svg>
